<svg width="27" height="26" viewBox="0 0 27 26" fill="none" xmlns="http://www.w3.org/2000/svg">
    <path d="M13.5 1C6.8724 1 1.5 6.3724 1.5 13C1.5 19.6276 6.8724 25 13.5 25C20.1276 25 25.5 19.6276 25.5 13C25.5 6.3724 20.1276 1 13.5 1Z"
          stroke="#1E3A5F" stroke-width="1.5" stroke-linecap="round" stroke-linejoin="round"/>
    <path d="M4.22461 20.6152C4.22461 20.6152 6.89941 17.2 13.4994 17.2C20.0994 17.2 22.7754 20.6152 22.7754 20.6152M13.4994 13C14.4542 13 15.3699 12.6207 16.045 11.9456C16.7201 11.2705 17.0994 10.3548 17.0994 9.4C17.0994 8.44522 16.7201 7.52955 16.045 6.85442C15.3699 6.17929 14.4542 5.8 13.4994 5.8C12.5446 5.8 11.629 6.17929 10.9538 6.85442C10.2787 7.52955 9.89941 8.44522 9.89941 9.4C9.89941 10.3548 10.2787 11.2705 10.9538 11.9456C11.629 12.6207 12.5446 13 13.4994 13Z"
          stroke="#1E3A5F" stroke-width="1.5" stroke-linecap="round" stroke-linejoin="round"/>
</svg>
