<svg width="25" height="16" viewBox="0 0 25 16" fill="none" xmlns="http://www.w3.org/2000/svg">
    <path d="M16.984 8.03349L23.135 2.6895V13.3165L16.984 8.03349ZM9.058 8.93849L11.218 10.8135C11.557 11.1015 11.999 11.2755 12.482 11.2755H12.499H12.512C12.996 11.2755 13.438 11.1005 13.781 10.8105L13.778 10.8125L15.938 8.9375L22.504 14.5765H2.495L9.058 8.93849ZM2.486 1.42249H22.516L12.895 9.77849C12.7868 9.86406 12.6529 9.91057 12.515 9.91049H12.501H12.488C12.3496 9.91067 12.2152 9.86377 12.107 9.7775L12.108 9.77849L2.486 1.42249ZM1.865 2.6885L8.015 8.0325L1.865 13.3125V2.6885ZM23.465 0.247495C23.225 0.127495 22.943 0.0574951 22.644 0.0574951H2.359C2.06916 0.0575644 1.78331 0.125006 1.524 0.254495L1.535 0.249495C1.22457 0.402606 0.963148 0.639474 0.780254 0.933341C0.597361 1.22721 0.500287 1.56636 0.5 1.9125V14.0845C0.500529 14.5771 0.696452 15.0494 1.04478 15.3977C1.39311 15.746 1.86539 15.942 2.358 15.9425H22.641C23.1336 15.942 23.6059 15.746 23.9542 15.3977C24.3025 15.0494 24.4985 14.5771 24.499 14.0845V1.9125C24.499 1.1855 24.08 0.555495 23.47 0.252495L23.459 0.247495H23.465Z"
          fill="#1E3A5F"/>
</svg>
