<svg width="23" height="24" viewBox="0 0 23 24" fill="none" xmlns="http://www.w3.org/2000/svg">
    <path d="M3.03943 24C2.33543 24 1.73619 23.7902 1.24171 23.3707C0.747238 22.9511 0.5 22.4431 0.5 21.8467V10.1533C0.5 9.55778 0.747238 9.04978 1.24171 8.62933C1.73619 8.20978 2.33543 8 3.03943 8H5.21429V5.33333C5.21429 3.848 5.82452 2.588 7.045 1.55333C8.26443 0.517778 9.74943 0 11.5 0C13.2506 0 14.7361 0.517778 15.9566 1.55333C17.177 2.58889 17.7868 3.84889 17.7857 5.33333V8H19.9621C20.664 8 21.2628 8.20978 21.7583 8.62933C22.2528 9.04889 22.5 9.55733 22.5 10.1547V21.8467C22.5 22.4422 22.2528 22.9502 21.7583 23.3707C21.2638 23.7902 20.6651 24 19.9621 24H3.03943ZM3.03943 22.6667H19.9621C20.244 22.6667 20.4755 22.5898 20.6567 22.436C20.838 22.2822 20.9286 22.0858 20.9286 21.8467V10.1533C20.9286 9.91422 20.838 9.71778 20.6567 9.564C20.4755 9.41022 20.244 9.33333 19.9621 9.33333H3.03786C2.75605 9.33333 2.52452 9.41022 2.34329 9.564C2.16205 9.71778 2.07143 9.91467 2.07143 10.1547V21.8467C2.07143 22.0858 2.16205 22.2822 2.34329 22.436C2.52452 22.5898 2.75657 22.6667 3.03943 22.6667ZM11.5 18C12.1631 18 12.7215 17.8071 13.1751 17.4213C13.6298 17.0364 13.8571 16.5627 13.8571 16C13.8571 15.4373 13.6298 14.9636 13.1751 14.5787C12.7205 14.1938 12.1621 14.0009 11.5 14C10.8379 13.9991 10.2795 14.192 9.82486 14.5787C9.37019 14.9636 9.14286 15.4373 9.14286 16C9.14286 16.5627 9.37019 17.0364 9.82486 17.4213C10.2785 17.8071 10.8369 18 11.5 18ZM6.78571 8H16.2143V5.33333C16.2143 4.22222 15.756 3.27778 14.8393 2.5C13.9226 1.72222 12.8095 1.33333 11.5 1.33333C10.1905 1.33333 9.07738 1.72222 8.16071 2.5C7.24405 3.27778 6.78571 4.22222 6.78571 5.33333V8Z"
          fill="#1E3A5F"/>
</svg>
