<svg width="25" height="24" viewBox="0 0 25 24" fill="none" xmlns="http://www.w3.org/2000/svg">
    <path d="M23.471 16.4446L17.6863 13.8523C17.4242 13.74 17.1382 13.6948 16.8543 13.7209C16.5703 13.747 16.2974 13.8435 16.0601 14.0017C16.0361 14.0172 16.0132 14.0344 15.9916 14.0531L12.9682 16.6246C12.9368 16.6417 12.9019 16.6513 12.8662 16.6526C12.8305 16.6538 12.795 16.6468 12.7625 16.632C10.8191 15.694 8.80601 13.6931 7.86434 11.7767C7.84866 11.7447 7.84051 11.7095 7.84051 11.6738C7.84051 11.6382 7.84866 11.603 7.86434 11.571L10.4444 8.50963C10.463 8.487 10.4801 8.46328 10.4959 8.4386C10.6519 8.20044 10.7461 7.92717 10.77 7.64348C10.794 7.35978 10.7469 7.07459 10.633 6.81365L8.05904 1.03874C7.91287 0.697844 7.66008 0.413548 7.3386 0.228524C7.01713 0.0434999 6.64432 -0.0322709 6.27613 0.0125833C4.67594 0.222954 3.2071 1.00879 2.1441 2.22324C1.08109 3.43768 0.49666 4.99764 0.500014 6.6116C0.500014 16.1997 8.30028 24 17.8884 24C19.5022 24.0031 21.062 23.4186 22.2764 22.3556C23.4908 21.2926 24.2767 19.8239 24.4874 18.2239C24.5321 17.8574 24.4574 17.4863 24.2742 17.1657C24.0911 16.8451 23.8094 16.5922 23.471 16.4446ZM17.8884 22.5305C9.11092 22.5305 1.96945 15.3891 1.96945 6.6116C1.96536 5.35514 2.41886 4.14017 3.24522 3.19369C4.07159 2.24721 5.21428 1.63397 6.45981 1.46855H6.48797C6.53732 1.46948 6.58523 1.48529 6.62544 1.51391C6.66565 1.54254 6.69627 1.58264 6.71328 1.62897L9.29704 7.39775C9.31178 7.42982 9.31941 7.4647 9.31941 7.5C9.31941 7.5353 9.31178 7.57017 9.29704 7.60225L6.71206 10.6709C6.69287 10.6929 6.67527 10.7162 6.65941 10.7407C6.49765 10.9877 6.4024 11.2722 6.38288 11.5667C6.36336 11.8613 6.42022 12.1559 6.54797 12.422C7.63413 14.6458 9.87502 16.8695 12.1233 17.9557C12.3909 18.0827 12.687 18.1382 12.9825 18.1168C13.278 18.0953 13.5629 17.9976 13.8094 17.8332C13.8327 17.8173 13.856 17.8002 13.878 17.7818L16.9002 15.2103C16.93 15.1942 16.963 15.1848 16.9968 15.1827C17.0306 15.1806 17.0645 15.1858 17.0961 15.198L22.882 17.7904C22.9293 17.8105 22.969 17.845 22.9956 17.8889C23.0222 17.9329 23.0343 17.9841 23.0302 18.0353C22.8656 19.2814 22.253 20.4249 21.3067 21.2522C20.3604 22.0795 19.1453 22.5339 17.8884 22.5305Z"
          fill="#1E3A5F"/>
</svg>
