<svg width="25" height="27" viewBox="0 0 25 27" fill="none" xmlns="http://www.w3.org/2000/svg">
    <path d="M12.8779 0.934784L0.94768 9.968V14.0181C4.64693 11.9104 13.2046 8.64658 17.0764 7.71991C17.1966 7.69478 17.2512 7.72514 17.3244 7.80158C17.7309 8.24869 19.0572 9.79 19.4177 10.2109C19.4314 10.2257 19.4415 10.2431 19.4473 10.2621C19.4532 10.281 19.4546 10.3009 19.4515 10.3204C19.4483 10.3399 19.4407 10.3585 19.4292 10.3749C19.4177 10.3913 19.4026 10.405 19.3849 10.4151C16.7078 12.4368 14.2648 14.728 12.0979 17.2494C12.0651 17.2882 12.0913 17.2945 12.111 17.2809C14.9974 16.0935 21.7557 14.2024 24.8082 13.6663V9.968L12.8779 0.934784ZM12.3535 12.6381C10.0199 13.3794 3.40037 16.1008 0.93457 17.4295V26.0649H24.8082V17.7552C21.5415 18.285 11.8051 21.064 7.37275 23.2482C7.33299 23.2715 7.28591 23.2804 7.23989 23.2735C7.19388 23.2666 7.15191 23.2443 7.12147 23.2105L4.88837 20.6671C4.82828 20.6033 4.82064 20.5645 4.90039 20.4493C6.62001 18.041 10.1324 14.2726 12.3655 12.6821C12.4114 12.6506 12.3994 12.6192 12.3524 12.6381H12.3535Z"
          fill="#1E3A5F"/>
</svg>
