<svg width="9" height="9" viewBox="0 0 9 9" fill="none" xmlns="http://www.w3.org/2000/svg">
    <path d="M2.4977 6.07482H6.747V6.57388C6.747 6.63368 6.76683 6.68357 6.80649 6.72355C6.84615 6.76321 6.89588 6.78304 6.95569 6.78304C7.01549 6.78304 7.06538 6.76321 7.10536 6.72355C7.14533 6.68389 7.16516 6.634 7.16485 6.57388V5.09606C7.16485 4.88423 7.09828 4.70544 6.96513 4.55971C6.83199 4.41397 6.66249 4.33119 6.45663 4.31136V3.69568C6.45663 3.47849 6.38376 3.29703 6.23803 3.1513C6.09229 3.00556 5.91083 2.93285 5.69365 2.93317H3.55105C3.33387 2.93317 3.15241 3.00588 3.00667 3.1513C2.86093 3.29672 2.78822 3.47818 2.78854 3.69568V4.31136C2.58205 4.3315 2.4124 4.41429 2.27957 4.55971C2.14674 4.70513 2.08032 4.88391 2.08032 5.09606V6.57388C2.08032 6.63368 2.1 6.68357 2.13934 6.72355C2.179 6.76321 2.22889 6.78304 2.28901 6.78304C2.34882 6.78304 2.39855 6.76321 2.43821 6.72355C2.47787 6.68389 2.4977 6.634 2.4977 6.57388V6.07482ZM2.4977 5.65697V5.09606C2.4977 4.9859 2.5339 4.89446 2.60629 4.82175C2.67869 4.74904 2.77044 4.71268 2.88155 4.71268H6.36456C6.47473 4.71268 6.56601 4.74888 6.63841 4.82127C6.7108 4.89367 6.74716 4.98527 6.74747 5.09606V5.65697H2.4977ZM3.20592 4.29531V3.64091C3.20592 3.55593 3.23314 3.48636 3.2876 3.43222C3.34205 3.37777 3.41177 3.35054 3.49676 3.35054H5.74841C5.83309 3.35054 5.90265 3.37777 5.9571 3.43222C6.01156 3.48668 6.03878 3.55624 6.03878 3.64091V4.29483L3.20592 4.29531ZM1.13603 8.96198C0.918531 8.96198 0.73707 8.88927 0.59165 8.74385C0.446229 8.59843 0.373362 8.41697 0.373047 8.19947V1.22589C0.373047 1.00871 0.445915 0.827402 0.59165 0.681982C0.737385 0.536561 0.918689 0.463694 1.13556 0.463379H8.10914C8.32632 0.463379 8.50763 0.536247 8.65305 0.681982C8.79847 0.827717 8.87134 1.00918 8.87165 1.22636V8.19947C8.87165 8.41666 8.79878 8.59812 8.65305 8.74385C8.50731 8.88959 8.32601 8.9623 8.10914 8.96198H1.13603ZM1.13603 8.48984H8.10914C8.18153 8.48984 8.24811 8.45962 8.30886 8.39919C8.36961 8.33875 8.39982 8.27202 8.39951 8.199V1.22636C8.39951 1.15365 8.36929 1.08692 8.30886 1.02618C8.24842 0.965426 8.18185 0.935209 8.10914 0.935524H1.13556C1.06316 0.935524 0.996593 0.965741 0.935843 1.02618C0.875094 1.08661 0.844877 1.15318 0.845192 1.22589V8.19947C0.845192 8.27186 0.875409 8.33844 0.935843 8.39919C0.996278 8.45994 1.06285 8.49015 1.13556 8.48984"
          fill="black"/>
</svg>
