<svg width="9" height="9" viewBox="0 0 9 9" fill="none" xmlns="http://www.w3.org/2000/svg">
    <path fill-rule="evenodd" clip-rule="evenodd"
          d="M2.14758 1.05912C1.79077 1.05912 1.50152 1.34829 1.50152 1.70501V4.41696H8.71284C8.79144 4.41696 8.86682 4.44818 8.9224 4.50374C8.97797 4.55931 9.0092 4.63467 9.0092 4.71324C9.0092 4.79182 8.97797 4.86718 8.9224 4.92275C8.86682 4.97831 8.79144 5.00952 8.71284 5.00952H8.60694C8.60971 5.0273 8.61129 5.04508 8.61248 5.06325C8.61406 5.08616 8.61406 5.11065 8.61406 5.13436V5.14976C8.61406 5.2979 8.61406 5.38481 8.60773 5.4816C8.55162 6.36491 8.07429 7.18106 7.3824 7.71436C7.38786 7.72306 7.39287 7.73202 7.39742 7.74123L7.79256 8.53131C7.8103 8.56615 7.82097 8.60417 7.82394 8.64316C7.82692 8.68215 7.82215 8.72134 7.8099 8.75847C7.79766 8.79561 7.77818 8.82995 7.75259 8.85953C7.72701 8.8891 7.69582 8.91332 7.66082 8.93079C7.62583 8.94825 7.58773 8.95862 7.54871 8.96129C7.50969 8.96397 7.47052 8.95889 7.43347 8.94636C7.39642 8.93383 7.36222 8.91409 7.33284 8.88828C7.30346 8.86247 7.27948 8.8311 7.26228 8.79598L6.87978 8.03158C6.48448 8.23356 6.04815 8.34235 5.60427 8.34959H5.6015C5.3091 8.36065 5.02302 8.36737 4.76143 8.36737C4.49985 8.36737 4.21377 8.36065 3.92137 8.34959H3.9186C3.47472 8.34235 3.03839 8.23356 2.64309 8.03158L2.26059 8.79598C2.24339 8.8311 2.21941 8.86247 2.19003 8.88828C2.16065 8.91409 2.12644 8.93383 2.0894 8.94636C2.05235 8.95889 2.01318 8.96397 1.97416 8.96129C1.93514 8.95862 1.89704 8.94825 1.86204 8.93079C1.82705 8.91332 1.79586 8.8891 1.77028 8.85953C1.74469 8.82995 1.72521 8.79561 1.71297 8.75847C1.70072 8.72134 1.69595 8.68215 1.69892 8.64316C1.7019 8.60417 1.71257 8.56615 1.73031 8.53131L2.12545 7.74123C2.12999 7.73202 2.135 7.72306 2.14047 7.71436C1.44857 7.18106 0.97085 6.36491 0.915135 5.4816C0.909433 5.37108 0.907325 5.26041 0.908813 5.14976V5.00952H0.810027C0.731429 5.00952 0.65605 4.97831 0.600472 4.92275C0.544895 4.86718 0.513672 4.79182 0.513672 4.71324C0.513672 4.63467 0.544895 4.55931 0.600472 4.50374C0.65605 4.44818 0.731429 4.41696 0.810027 4.41696H0.908813V1.70501C0.908789 1.41717 1.00906 1.1383 1.19239 0.916347C1.37572 0.694393 1.63066 0.543214 1.91339 0.488796C2.19612 0.434378 2.48898 0.480119 2.74163 0.618156C2.99429 0.756194 3.19095 0.977907 3.29783 1.24519L3.3413 1.35382C3.66559 1.27106 4.00815 1.29772 4.31572 1.42967C4.50716 1.51217 4.68026 1.63196 4.8249 1.78206C4.96954 1.93216 5.08283 2.10955 5.15816 2.3039C5.18629 2.37547 5.18549 2.45517 5.15592 2.52616C5.12635 2.59715 5.07033 2.65386 4.9997 2.68432L2.64467 3.69799C2.60821 3.71373 2.56897 3.72199 2.52926 3.72228C2.48956 3.72256 2.4502 3.71487 2.41353 3.69965C2.37685 3.68443 2.34361 3.662 2.31578 3.63369C2.28795 3.60538 2.26609 3.57176 2.2515 3.53484C2.09621 3.13991 2.09904 2.70035 2.2594 2.30745C2.37203 2.02757 2.56079 1.78481 2.8043 1.60665L2.7474 1.46523C2.69946 1.34536 2.6167 1.2426 2.50978 1.17022C2.40286 1.09783 2.2767 1.05914 2.14758 1.05912ZM1.63311 5.00952H1.59359C1.56854 5.01114 1.54505 5.02226 1.52794 5.04062C1.51082 5.05898 1.50137 5.08319 1.50152 5.10828V5.14107C1.50152 5.29988 1.50152 5.36783 1.50666 5.44407C1.57976 6.59838 2.57156 7.62785 3.72221 7.74439C3.79927 7.75229 3.84194 7.75347 3.94349 7.75742C4.23116 7.76809 4.50973 7.77481 4.76143 7.77481C5.01314 7.77481 5.29171 7.76809 5.57938 7.75742C5.68093 7.75347 5.7236 7.75189 5.80065 7.74399C6.9513 7.62785 7.94311 6.59838 8.0166 5.44407C8.02135 5.36783 8.02135 5.29988 8.02135 5.14107V5.10196C8.02135 5.10117 8.02135 5.10117 8.02135 5.10196C8.01976 5.07801 8.0095 5.05545 7.99248 5.03851C7.97546 5.02157 7.95285 5.0114 7.92888 5.00992C7.92928 5.00992 7.92967 5.00992 7.92888 5.00992H7.92256L7.89016 5.00952H1.63311ZM4.08298 1.97483C3.95905 1.9217 3.82508 1.89606 3.69028 1.89967C3.55549 1.90329 3.42308 1.93607 3.30218 1.99576C3.07695 2.10673 2.90094 2.29734 2.80825 2.53065C2.7458 2.68403 2.72009 2.84988 2.73318 3.01497L4.46389 2.26992C4.36402 2.14068 4.23276 2.0391 4.08258 1.97483"
          fill="black"/>
</svg>
