<svg width="26" height="25" viewBox="0 0 26 25" fill="none" xmlns="http://www.w3.org/2000/svg">
    <path d="M19.6406 0H6.35938C3.12333 0 0.5 2.62333 0.5 5.85938V19.1406C0.5 22.3767 3.12333 25 6.35938 25H19.6406C22.8767 25 25.5 22.3767 25.5 19.1406V5.85938C25.5 2.62333 22.8767 0 19.6406 0Z"
          fill="white"/>
    <path d="M19.6406 0H6.35938C3.12333 0 0.5 2.62333 0.5 5.85938V19.1406C0.5 22.3767 3.12333 25 6.35938 25H19.6406C22.8767 25 25.5 22.3767 25.5 19.1406V5.85938C25.5 2.62333 22.8767 0 19.6406 0Z"
          fill="#0A66C2"/>
    <path d="M18.5386 21.2583H21.397C21.5006 21.2583 21.5999 21.2172 21.6732 21.1439C21.7464 21.0707 21.7876 20.9714 21.7876 20.8678L21.7891 14.8285C21.7891 11.672 21.1089 9.2457 17.4201 9.2457C16.0179 9.19355 14.6955 9.91641 13.9819 11.1234C13.9784 11.1293 13.9731 11.1339 13.9668 11.1364C13.9605 11.139 13.9535 11.1394 13.9469 11.1376C13.9403 11.1358 13.9345 11.132 13.9303 11.1266C13.9262 11.1212 13.9239 11.1145 13.9238 11.1077V9.92773C13.9238 9.82413 13.8827 9.72478 13.8094 9.65152C13.7362 9.57826 13.6368 9.53711 13.5332 9.53711H10.8206C10.717 9.53711 10.6176 9.57826 10.5444 9.65152C10.4711 9.72478 10.43 9.82413 10.43 9.92773V20.8672C10.43 20.9708 10.4711 21.0701 10.5444 21.1434C10.6176 21.2167 10.717 21.2578 10.8206 21.2578H13.6788C13.7824 21.2578 13.8818 21.2167 13.955 21.1434C14.0283 21.0701 14.0694 20.9708 14.0694 20.8672V15.4597C14.0694 13.9307 14.3595 12.4499 16.2551 12.4499C18.1237 12.4499 18.1479 14.1995 18.1479 15.5587V20.8677C18.1479 20.9713 18.1891 21.0706 18.2624 21.1439C18.3356 21.2171 18.435 21.2583 18.5386 21.2583ZM4.21094 5.82305C4.21094 6.98164 5.16475 7.93496 6.32344 7.93496C7.48184 7.93486 8.43506 6.98096 8.43506 5.82256C8.43486 4.66416 7.48154 3.71094 6.32305 3.71094C5.16426 3.71094 4.21094 4.66445 4.21094 5.82305ZM4.89053 21.2583H7.75254C7.85614 21.2583 7.9555 21.2171 8.02875 21.1439C8.10201 21.0706 8.14316 20.9713 8.14316 20.8677V9.92773C8.14316 9.82413 8.10201 9.72478 8.02875 9.65152C7.9555 9.57826 7.85614 9.53711 7.75254 9.53711H4.89053C4.78693 9.53711 4.68757 9.57826 4.61431 9.65152C4.54106 9.72478 4.4999 9.82413 4.4999 9.92773V20.8677C4.4999 20.9713 4.54106 21.0706 4.61431 21.1439C4.68757 21.2171 4.78693 21.2583 4.89053 21.2583Z"
          fill="white"/>
</svg>
